@startuml
title <size: 30> US20 Class Diagram - v4.0


interface Sensor {
}

interface DomainEntity {
    + getID() : DomainID
}

interface DomainID {
    + getID() : String
}

interface ValueObject<T> {
    + getValue() : T
}

class SunriseSensor{
    + SunriseSensor(sensorName : SensorNameVO, deviceID : DeviceIDVO, sensorTypeID : SensorTypeIDVO)
    + getSunriseTime(date : String, gpsLocation : String, sunTimeCalculator : SunTimeCalculator) : Value<ZonedDateTime>
    + getSensorName() : SensorNameVO
    + getSensorTypeID() : SensorTypeIDVO
    + getDeviceID() : DeviceIDVO
    + getID() : SensorIDVO
    - areParamsNull(params... : Object) : boolean
}

class SunTimeValue {
    + SunTimeValue(sunTimeValue : ZonedDateTime)
    + getValue() : ZonedDateTime
}

class SunTimeCalculator {
    + computeSunriseTime(date : String, gpsCoordinates : String) : ZonedDateTime
    - getSunTimes(date : String, gpsCoordinates : String) : SunTimes
    - convertCoordinates(gpsCoordinates : String) : double[]
    - parseLocalDate(dateAsString : String) : LocalDate
    - convertToDate(localDate : LocalDate) : Date
}

class SensorNameVO {
    - sensorName : String
    + SensorNameVO(sensorName : String)
    + getValue() : String
}

class SensorIDVO {
    - identifier : UUID
    + SensorIDVO(identifier : UUID)
    + getID() : String
}

class SensorTypeIDVO {
    - sensorTypeID : String
    + SensorTypeIDVO(sensorTypeID : String)
    + getID() : String
}

class DeviceIDVO {
    - deviceID : UUID
    + DeviceIDVO(identifier : UUID)
    + getID() : String
}

DomainEntity <|.. SunriseSensor
Sensor <|.. SunriseSensor
SunTimeCalculator <|.. SunriseSensor

SensorNameVO <.. SunriseSensor
SensorIDVO *-- SunriseSensor
SunTimeValue *--right SunriseSensor
SensorTypeIDVO <.. SunriseSensor
DeviceIDVO <.. SunriseSensor

ValueObject <.. SensorNameVO
DomainID <|.. SensorIDVO
DomainID <|.. SensorTypeIDVO
DomainID <|.. DeviceIDVO

ValueObject <|.. SunTimeValue

@enduml