@startuml
title <size: 30> US15 Class Diagram

note "<b>Only methods related to\n<b>US16 are represented" as 1

skinparam linetype ortho

interface Actuator <<Root>>{
    + getActuatorTypeID() : ActuatorTypeIDVO
    + getDeviceID() : DeviceIDVO
    + getActuatorName() : ActuatorNameVO
}

interface DomainEntity{
    + getID() : DomainID
}

interface DomainID{
    + getID() : String
}

interface ValueObject<T> {
    + getValue() : T
}

class IntegerValueActuator <<Entity>>{
    - actuatorID : ActuatorIDVO
    - actuatorName : ActuatorNameVO
    - actuatorTypeID : ActuatorTypeIDVO
    - deviceIDVO : DeviceIDVO
    - integerSettings : IntegerSettingsVO

    + IntegerValueActuator(actuatorName : ActuatorNameVO, actuatorTypeID : ActuatorTypeIDVO,\n deviceID : DeviceIDVO, settings : Settings)
    + executeCommand(simHardwareAct : SimHardwareAct, value : int) : String
    - isValueWithinLimits(value : int) : boolean
}


class SimHardwareAct {
    + executeDecimalCommand(value : double) : boolean
}

class ActuatorNameVO <<Value Object>>{
    - actuatorName : String
    + ActuatorNameVO(actuatorName : String)
    + getValue() : String
}

class ActuatorIDVO <<Value Object>><<ID>>{
    - identifier : UUID
    + ActuatorIDVO(identifier : UUID)
}

class ActuatorTypeIDVO <<Value Object>><<ID>>{
    - actuatorTypeID : String
    + ActuatorTypeIDVO(actuatorTypeID : String)
}

class DeviceIDVO <<Value Object>><<ID>>{
    - deviceID : UUID
    + DeviceIDVO(deviceID : UUID)
}

class IntegerSettingsVO <<Value Object>>{
    - lowerLimit : int
    - upperLimit : int

    + IntegerSettingsVO(lowerLimit : String, upperLimit : String)
    + getValue() : Integer[]
    - validLimits(lowerLimit : int, upperLimit : int) : boolean
}


DomainEntity <|-- Actuator
Actuator <|.. IntegerValueActuator
SimHardwareAct <.. IntegerValueActuator
ActuatorNameVO "1" ..o "1" IntegerValueActuator
ActuatorIDVO "1" ..* "1" IntegerValueActuator
ActuatorTypeIDVO "1" ..o "*" IntegerValueActuator
DeviceIDVO "1" ..o "*" IntegerValueActuator
IntegerSettingsVO "1" ..o "1" IntegerValueActuator
ValueObject <|... ActuatorNameVO
ValueObject <|... IntegerSettingsVO
DomainID <|.. ActuatorIDVO
DomainID <|.. ActuatorTypeIDVO
DomainID <|.. DeviceIDVO
@enduml