@startuml
       title <size: 30> US03 Class Diagram
       note "<b>Only methods related to\n<b>US03 are represented" as N1
       skinparam linetype ortho

       class GetListOfRoomsCTRL{
          - roomService : RoomService
          +getListOfRooms() : List<RoomDTO>
                        }

       class RoomDTOMapper{
           + getRoomDTOList(listOfRooms : List<Room>) : LinkedHashMap<RoomDTO, Room>
           + domainToDTO(room : Room) : RoomDTO
       }

       class RoomRepository{
           - DATA : Map<RoomID, Room>

           + findAll() : Iterable<Room>
       }

       class RoomService{
           - roomRepository : RoomRepository
           - roomFactory : RoomFactory

           + getRooms() : List<Room>
       }

       class RoomDTO{
            - ID : float
            - roomName :String
            - houseFloor : int
            - roomWidth : double
            - roomLength : double
            - roomHeight : double

               }

       GetListOfRoomsCTRL --> RoomService : <<use>>
       RoomService --> RoomRepository : <<use>>
       RoomService --> RoomDTOMapper : <<use>>
       RoomDTOMapper --> RoomDTO : <<use>>

       @enduml1