@startuml
       title <size: 30> US06 Class Diagram

note "<b>Only methods related to\n<b>US06 are represented" as N1
skinparam linetype ortho

       class GetListOfDevicesFromRoomCTRL{
           - RoomRepository : roomRepository
           - DeviceRepository : deviceRepository

           + getListOfRoomID() : List<IdRoomDTO>
           + getListOfDevices(idRoom : IdRoom) : List<IdDevice>
           + getIdDeviceDTOList(listOfIdDevices : List<IdDevice>) : List<IdDeviceDTO>
       }

       class RoomRepository{
           - roomMap : Map<IdRoom, Room>

           + getRoomList () : List<Room>
           - cloneListOfRoomID(List<Room>) : List<Room>
       }


       class IdRoomDTO{
           - idRoom :IdRoom
           - houseFloor : int
           - roomWidth : double
           - roomLength : double
           - roomHeight : double
       }

       class RoomDTOMapper{
           + getIdRoomDTOList(listOfRooms : List<Room>) : LinkedHashMap<IdRoomDTO, IdRoom>
           + domainToDTO(idRoom : IdRoom) : IdRoomDTO
           - refreshMap(idRoom : IdRoom) : void
           - truncateList(roomIDDTOAndRoomIDMap : Map<IdRoomDTO, IdRoom>) : List<IdRoomDTO>
       }


       class DeviceRepository{
           - deviceList : ArrayList<Device>

           + getDeviceList(idRoom) : List<Device>
           - cloneIdList(List<IdDevice>) : List<IdDevice>
       }


       class DeviceDTOMapper{
           + getIdDeviceDTOList(listOfIdDevices : List<IdDevice>) : List<IdDeviceDTO>
           + domainToDTO(idDevice : IdDevice) : IdDeviceDTO

       }


       class DeviceDTO{
           - deviceID : String
           - deviceModel : String
           - location : String
           - status : boolean
           }



       GetListOfDevicesFromRoomCTRL ..> RoomDTOMapper
       RoomDTOMapper ..> IdRoomDTO
       GetListOfDevicesFromRoomCTRL ..> DeviceDTOMapper
       DeviceDTOMapper ..> DeviceDTO
       GetListOfDevicesFromRoomCTRL ..> RoomRepository
       GetListOfDevicesFromRoomCTRL ..> DeviceRepository



       @enduml