@startuml
title <size: 30> US22 Class Diagram - v4.0


interface Sensor {
}

interface DomainEntity {
    + getID() : DomainID
}

interface DomainID {
    + getID() : String
}

interface ValueObject<T> {
    + getValue() : T
}

class DewPointSensor{
    + DewPointSensor(sensorName : SensorNameVO, deviceID : DeviceIDVO, sensorTypeID : SensorTypeIDVO)
    + getReading(simHardware : SimHardware) : simValue<DewPointValue>
    + getSensorName() : SensorNameVO
    + getSensorTypeID() : SensorTypeIDVO
    + getDeviceID() : DeviceIDVO
    + getID() : SensorIDVO
    - areParamsNull(params... : Object) : boolean
}

class SimHardware{
    +getValue() : String
}

class DewPointValue {
    + DewPointValue(dewPointValue : String)
    + getValue() : dewPointValue
    - isReadingValid(dewPointValue : String) : boolean
}

class SensorNameVO {
    - sensorName : String
    + SensorNameVO(sensorName : String)
    + getValue() : String
}

class SensorIDVO {
    - identifier : UUID
    + SensorIDVO(identifier : UUID)
    + getID() : String
}

class SensorTypeIDVO {
    - sensorTypeID : String
    + SensorTypeIDVO(sensorTypeID : String)
    + getID() : String
}

class DeviceIDVO {
    - deviceID : UUID
    + DeviceIDVO(identifier : UUID)
    + getID() : String
}

DomainEntity <|.. DewPointSensor
Sensor <|.. DewPointSensor
SimHardware <|.. DewPointSensor

SensorNameVO <.. DewPointSensor
SensorIDVO *-- DewPointSensor
DewPointValue *--right DewPointSensor
SensorTypeIDVO <.. DewPointSensor
DeviceIDVO <.. DewPointSensor

ValueObject <.. SensorNameVO
DomainID <|.. SensorIDVO
DomainID <|.. SensorTypeIDVO
DomainID <|.. DeviceIDVO

ValueObject <|.. DewPointValue

@enduml