@startuml

title <size: 30> US05v2 Class Diagram

note "<b>Only methods related to\n<b>US05v2 are represented" as N1

class AddDeviceToRoomCTRL{
    - <b>myHouse : House

    + getListOfRooms() : ArrayList<RoomDTO>
    + addDeviceToRoom(roomDTO : RoomDTO, ) : int
}

class CommonListOfRooms{
    - <b>house : House
    + getListOfRooms() : ArrayList<Room>
}

class RoomDTO{
    - <b>roomName :String
    - houseFloor : int
    - roomWidth : double
    - roomLength : double
    - roomHeight : double
}

class RoomDTOMapper{
    + getRoomDTOList() : ArrayList<RoomDTO>
    + dtoToDomain() : Room
}

class House {
    - houseName: String
    - gps : GPS
    - address : Address
    - <b>listOfRooms : ListOfRooms
    - sensorTypeList : sensorTypeList
}

class ListOfRooms{
    - <b>roomList : ArrayList<Room>
}

class Room {
    - roomName: String
    - houseFloor : int
    - dimensions : RoomDimensions
    - <b>deviceList : ListOfDevices
}

class ListOfDevices{
    - <b>deviceList : ArrayList<Device>

    - createDevice(deviceName : String, deviceModel : String, \nlocation : String) : Device
    + addDeviceToList(deviceName : String, deviceModel : String, \nlocation : String) : int
    - isDeviceDuplicated(deviceName : String) : boolean
}

class Device {
    - <b>deviceName : String
    - <b>deviceModel : String
    - <b>deviceLocation : String
    - status : boolean
    - listOfSensors : ListOfSensors
}

AddDeviceToRoomCTRL -up.> CommonListOfRooms
AddDeviceToRoomCTRL ..> RoomDTOMapper
RoomDTOMapper ..> RoomDTO
House -left..> CommonListOfRooms
House "1" *-- "1" ListOfRooms
ListOfRooms "*" o-- "1" Room
Room "*" *-- "1" ListOfDevices
ListOfDevices "*" o-- "1" Device

@enduml