@@startuml
        title <size: 30> US06 Class Diagram

 note "<b>Only methods related to\n<b>US06 are represented" as N1
 skinparam linetype ortho


 class GetListOfDevicesCTRL {
 - roomService : RoomService
 - deviceServe : DeviceService

 + GetListOfDevicesCTRL(roomService : RoomService, deviceService : DeviceService)
 + getListOfDevices(roomDTO : RoomDTO) : List<DeviceDTO>
 }

class RoomMapper{
 + getRoomDTOList(clonedListOfRooms : List<Room>) : List<RoomDTO>
 + domainToDTO(room : Room) : RoomDTO
 + getID(roomDTO : roomDTO) : RoomIDVO
 }

 class RoomDTO{
 - roomID : String
 - roomName :String
 - houseFloor : int
 - roomWidth : double
 - roomLength : double
 }

 class RoomIDVO {
 - identifier : UUID
 }

 class RoomService <<Service>>{
 - roomRepository : RoomRepository
 - roomFactory : RoomFactory

 + RoomService(roomRepository : RoomRepository, roomFactory : RoomFactory)
 + isPresent(roomIDVO : RoomIDVO) : boolean
 }


 class RoomRepository <<Repository>>{
 - DATA : LinkedHashMap<RoomIDVO, Room>

 + isPresent(roomID : RoomIDVO) : boolean
 }


 class DeviceService <<Service>>{
 - factoryDevice : DeviceFactory
 - deviceRepository : DeviceRepository

 + DeviceService(factoryDevice : DeviceFactory, deviceRepository : DeviceRepository)
 + getListOfDevicesInARoom(roomIDVO : RoomIDVO) : List<Device>
 }

 class DeviceRepository <<Repository>>{
 - DATA : LinkedHashMap<DeviceIDVO, Device>

 + findByRoomID(roomID : RoomIDVO) : List<Device>
 }

 class DeviceMapper {
 + domainToDTO(deviceList : List<Device>) : List<DeviceDTO>
}

 interface Repository{
 + findById(id : ID) : T
 + isPresent(id : ID) : boolean
 }

 GetListOfDevicesCTRL ..> RoomService
 RoomService ..> RoomRepository

 GetListOfDevicesCTRL ..> RoomMapper
 RoomMapper ..> RoomDTO
 RoomDTO ..> RoomIDVO : <<creates>>

 GetListOfDevicesCTRL ..> DeviceService
 DeviceService ..> DeviceRepository

 GetListOfDevicesCTRL ..> DeviceMapper

 Repository <|....up RoomRepository
 Repository <|....up DeviceRepository

 @enduml