@startuml
title <size: 30> DDD Implementation Model v4.2
note "<b>This diagram presents the DDD approach to the \n<b>project. Methods are abstracted for readability." as n1
skinparam linetype ortho

package HouseAggregate {
    class House <<Root>> <<Entity>>{}
    class Location <<VO>>{}
    class GPS <<VO>>{}
    class Address <<VO>>{}
    class Door <<VO>>{}
    class Street <<VO>>{}
    class City <<VO>>{}
    class Country <<VO>>{}
    class PostalCode <<VO>>{}
    class Longitude <<VO>>{}
    class Latitude <<VO>>{}
}

class HouseID <<VO>> <<Identity>>{}

package RoomAggregate {
    class Room <<Root>> <<Entity>>{}
    class RoomName <<VO>>{}
    class Floor <<VO>>{}
    class Dimensions <<VO>>{}
    class Width <<VO>>{}
    class Length <<VO>>{}
    class Height <<VO>>{}
}

class RoomID <<VO>> <<Identity>>{}

package DeviceAggregate {
    class Device <<Root>> <<Entity>>{}
    class DeviceName <<VO>>{}
    class DeviceModel <<VO>>{}
    class Status <<VO>>{}
}

class DeviceID <<VO>> <<Identity>>{}

package SensorAggregate {
    interface Sensor <<Root>> <<Entity>>{}
    class SensorName <<VO>>{}
}

class SensorID <<VO>> <<Identity>>{}

package ActuatorAggregate {
    interface Actuator <<Root>> <<Entity>>{}
    class ActuatorName <<VO>>{}
    Interface Settings <<VO>>{}
}

class ActuatorID <<VO>> <<Identity>>{}

package SensorTypeAggregate {
    class SensorType <<Root>> <<Entity>>{}
    class Unit <<VO>>
}

class SensorTypeID <<VO>> <<Identity>>{}

package ActuatorTypeAggregate {
    class ActuatorType <<Root>> <<Entity>>{}
}

class ActuatorTypeID <<VO>> <<Identity>>{}

Room ..> RoomName
Room ..right> Floor
Room ..> HouseID
Room ..down> Dimensions
Dimensions ..> Width
Dimensions ..> Length
Dimensions ..> Height
Room --left* RoomID

House ..right> Location
House --* HouseID
Location ..> Address
Location ..right> GPS
Address ..> Door
Address ..> Street
Address ..> City
Address ..> Country
Address ..> PostalCode
GPS ..right> Latitude
GPS ..up> Longitude

Device ..> DeviceName
Device ..> DeviceModel
Device --* DeviceID
Device --* Status
Device ..> RoomID

Sensor ..left> SensorName
Sensor --* SensorID
Sensor ...up> DeviceID
Sensor ..> SensorTypeID

Actuator ..> ActuatorName
Actuator --* ActuatorID
Actuator ....up> DeviceID
Actuator ..> ActuatorTypeID
Actuator ..> Settings
Note bottom of Settings: Optional

SensorType --up* SensorTypeID
SensorType ..> Unit

ActuatorType --up* ActuatorTypeID

@enduml

