@startuml
title <size: 30> Use Case: Get List of Actuator Types v5.1
note "<b>Only methods related to\n<b>Get List of Actuator Types are represented" as N1
skinparam linetype ortho



class GetListOfActuatorTypesCTRL {
    -actuatorTypeService : ActuatorTypeService

    +GetListOfActuatorTypesCTRL(actuatorTypeService)
    +getListOfActuatorTypes() : List<ActuatorTypeDTO>
}

class ActuatorTypeMapper{
    +domainToDTO(actuatorTypeList : List<ActuatorType>) : List<ActuatorTypeDTO>
}

class ActuatorTypeServiceImpl{
    -actuatorTypeRepository : ActuatorTypeRepository
    -actuatorTypeFactory : ActuatorTypeFactory
    - filepath : String

    +ActuatorTypeService(actuatorTypeRepository : ActuatorTypeRepository, actuatorTypeFactory : ActuatorTypeFactory)
    +getListOfActuatorTypes() : List<ActuatorType>
    -populateRepository() : void
    -actuatorTypeReadingAndConversion() : List<String>
}



class ActuatorTypeRepositoryMem{
    -actuatorTypes : Map<ActuatorTypeIDVO, ActuatorType>

    +findAll() : Iterable<ActuatorType>
}

class ActuatorTypeRepositoryJPA{
    -actuatorTypeFactory : ActuatorTypeFactory
    -entityManagerFactory : EntityManagerFactory

    +findAll() : Iterable<ActuatorType>
}


class ActuatorTypeDTO{
    -actuatorTypeID : String

    +ActuatorTypeDTO(actuatorTypeID : String)
    +getActuatorTypeID() : String
}


interface ActuatorTypeService{

    +getListOfActuatorTypes(): List<ActuatorType>
    +actuatorTypeExists(actuatorTypeIDVO : ActuatorTypeIDVO) : boolean
}


interface ActuatorTypeRepository{
}

interface Repository{
    + findAll() : Iterable<T>
    + findByID(id : ID) : T
    + isPresent(id : ID) : boolean
    + save(entity : T) : boolean
}

class ActuatorTypeAssembler{
    +actuatorTypeToDomain(actuatorTypeFactory : ActuatorTypeFactory,\n actuatorTypeDataModel : ActuatorTypeDataModel) : ActuatorType
    +actuatorTypeListToDomain(actuatorTypeFactory : ActuatorTypeFactory,\n actuatorTypeDataModelList : List<ActuatorTypeDataModel>) : Iterable<ActuatorType>
}

class ActuatorTypeDataModel{
    -actuatorTypeID : String
}

class ActuatorTypeFactoryImpl{
    +createActuatorType(actuatorTypeIDVO : ActuatorTypeIDVO) : ActuatorType
}

class ActuatorType{
    -actuatorTypeIDVO : ActuatorTypeIDVO

    +ActuatorTypeIDVO(actuatorTypeID : String)
    +getID() : String
}

interface ActuatorTypeFactory{
    +createActuatorType(actuatorTypeIDVO : ActuatorTypeIDVO) : ActuatorType
}

class ActuatorTypeRepositorySpringData {
    -actuatorTypeFactory : ActuatorTypeFactory
    -iActuatorTypeRepositorySpringData : IActuatorTypeRepositorySpringData

    +findAll() : Iterable<ActuatorType>
}

interface IActuatorTypeRepositorySpringData {
}


GetListOfActuatorTypesCTRL ..> ActuatorTypeService

ActuatorTypeService <|.. ActuatorTypeServiceImpl

ActuatorTypeServiceImpl .right.> ActuatorTypeMapper
ActuatorTypeServiceImpl .up.> ActuatorTypeDTO
ActuatorTypeMapper .up.> ActuatorTypeDTO : creates >

ActuatorTypeServiceImpl ..> ActuatorTypeRepository

ActuatorTypeRepository -left-|> Repository

ActuatorTypeRepositoryMem .left.|> ActuatorTypeRepository
ActuatorTypeRepositoryJPA .up.|> ActuatorTypeRepository
ActuatorTypeRepositorySpringData .up.|> ActuatorTypeRepository

ActuatorTypeRepositorySpringData .right.> IActuatorTypeRepositorySpringData

ActuatorTypeRepositorySpringData ..> ActuatorTypeAssembler
ActuatorTypeRepositoryJPA ..> ActuatorTypeAssembler
ActuatorTypeFactory .right.> ActuatorTypeAssembler

ActuatorTypeFactoryImpl ..|> ActuatorTypeFactory
ActuatorTypeFactoryImpl .up.> ActuatorType : creates >

ActuatorTypeRepositorySpringData ..> ActuatorTypeDataModel
ActuatorTypeRepositoryJPA ..> ActuatorTypeDataModel
ActuatorTypeAssembler .right.> ActuatorTypeDataModel



@enduml